<svg width="39" height="40" viewBox="0 0 39 40" fill="none" xmlns="http://www.w3.org/2000/svg">
<g filter="url(#filter0_d_14_3938)">
<path fill-rule="evenodd" clip-rule="evenodd" d="M14.4777 10.8594C13.0922 12.879 12.691 15.524 13.635 17.9834L13.7956 18.4018C15.3202 22.3734 19.7757 24.3571 23.7472 22.8325C24.0739 22.7071 24.3872 22.5619 24.6861 22.3987C23.8342 23.6405 22.6102 24.6459 21.0981 25.2263C17.1265 26.7509 12.671 24.7672 11.1465 20.7956L10.9859 20.3772C9.58673 16.7323 11.1424 12.6799 14.4777 10.8594Z" fill="#FFD914"/>
<path d="M18.7498 14.75L19.2549 16.3047L20.8896 16.3047L19.5671 17.2656L20.0723 18.8203L18.7498 17.8594L17.4272 18.8203L17.9324 17.2656L16.6099 16.3047L18.2446 16.3047L18.7498 14.75Z" fill="#FFD914"/>
</g>
<defs>
<filter id="filter0_d_14_3938" x="0.472168" y="0.859375" width="38.2139" height="38.8809" filterUnits="userSpaceOnUse" color-interpolation-filters="sRGB">
<feFlood flood-opacity="0" result="BackgroundImageFix"/>
<feColorMatrix in="SourceAlpha" type="matrix" values="0 0 0 0 0 0 0 0 0 0 0 0 0 0 0 0 0 0 127 0" result="hardAlpha"/>
<feOffset dx="2" dy="2"/>
<feGaussianBlur stdDeviation="6"/>
<feComposite in2="hardAlpha" operator="out"/>
<feColorMatrix type="matrix" values="0 0 0 0 1 0 0 0 0 1 0 0 0 0 1 0 0 0 0.25 0"/>
<feBlend mode="normal" in2="BackgroundImageFix" result="effect1_dropShadow_14_3938"/>
<feBlend mode="normal" in="SourceGraphic" in2="effect1_dropShadow_14_3938" result="shape"/>
</filter>
</defs>
</svg>
